<svg xmlns="http://www.w3.org/2000/svg" version="1.1" xmlns:xlink="http://www.w3.org/1999/xlink" width="512" height="512" x="0" y="0" viewBox="0 0 512 512" style="enable-background:new 0 0 512 512" xml:space="preserve" class=""><g><g fill-rule="evenodd" clip-rule="evenodd"><path fill="#d0d9e0" d="M42.27 9h427.46C488.029 9 503 23.971 503 42.27v427.46c0 18.298-14.971 33.27-33.27 33.27H42.27C23.971 503 9 488.029 9 469.73V42.27C9 23.971 23.971 9 42.27 9z" opacity="1" data-original="#64b5f6" class=""></path><path fill="#e6f8ff" d="M49.57 128.861h412.862c3.3 0 6 2.7 6 6v327.57c0 3.3-2.7 6-6 6H49.57c-3.3 0-6-2.7-6-6v-327.57c0-3.3 2.7-6 6-6z" opacity="1" data-original="#e6f8ff"></path><path fill="#004960" d="M9 94.292h494V42.27C503 23.971 488.029 9 469.73 9H42.27C23.971 9 9 23.971 9 42.27z" opacity="1" data-original="#004960" class=""></path><path fill="#fc685b" d="M63.702 62.647c6.058 0 11-4.941 11-11s-4.941-11-11-11-11 4.941-11 11c0 6.058 4.942 11 11 11z" opacity="1" data-original="#fc685b"></path><path fill="#ffda2d" d="M109.311 62.647c6.059 0 11-4.941 11-11s-4.941-11-11-11c-6.058 0-11 4.941-11 11 0 6.058 4.942 11 11 11z" opacity="1" data-original="#ffda2d"></path><circle cx="154.921" cy="51.646" r="11" fill="#72d561" transform="rotate(-2.06 153.384 51.18)" opacity="1" data-original="#72d561"></circle><path fill="#eff4f7" d="M454.223 43.646a8 8 0 0 1 0 16H309.424a8 8 0 0 1 0-16z" opacity="1" data-original="#eff4f7" class=""></path><path fill="#d0d9e0" d="M33.57 290.646H248V118.861h16v171.785h214.431v16H264v171.785h-16V306.646H33.57z" opacity="1" data-original="#64b5f6" class=""></path><path fill="#ffda2d" d="M362.216 150.366c46.674 0 84.512 37.837 84.512 84.512 0 15.396-4.119 29.83-11.313 42.262l-25.974-14.996c4.641-8.021 7.299-17.333 7.299-27.266 0-30.113-24.411-54.524-54.524-54.524s-54.524 24.411-54.524 54.524c0 9.933 2.657 19.244 7.298 27.265l-25.974 14.996c-7.193-12.432-11.312-26.865-11.312-42.261 0-46.674 37.837-84.512 84.512-84.512z" opacity="1" data-original="#ffda2d"></path><path fill="#ffc700" d="m334.949 187.651-14.997-25.974a84.924 84.924 0 0 0-30.938 30.939c-7.193 12.432-11.31 26.867-11.31 42.263h29.988c0-9.933 2.656-19.246 7.297-27.266a54.782 54.782 0 0 1 19.96-19.962z" opacity="1" data-original="#ffc700"></path><path fill="#72d561" d="M319.953 161.677a84.924 84.924 0 0 0-30.938 30.939l25.974 14.996a54.797 54.797 0 0 1 19.961-19.961c8.021-4.641 17.333-7.297 27.267-7.297v-29.988c-15.397 0-29.832 4.117-42.264 11.311z" opacity="1" data-original="#72d561"></path><path fill="#3cbe52" d="M362.216 156.926v-6.56c-15.396 0-29.831 4.117-42.263 11.311l14.997 25.974c8.021-4.641 17.333-7.297 27.267-7.297 9.933 0 19.245 2.656 27.266 7.297l14.996-25.975c-12.432-7.193-26.867-11.31-42.262-11.31v6.56z" opacity="1" data-original="#3cbe52"></path><path fill="#d0d9e0" d="M404.479 161.677c-12.432-7.193-26.867-11.31-42.262-11.31v29.988c9.933 0 19.246 2.656 27.266 7.297a54.79 54.79 0 0 1 19.961 19.961l25.974-14.996a84.929 84.929 0 0 0-30.939-30.94z" opacity="1" data-original="#64b5f6" class=""></path><path fill="#42a5f5" d="M435.417 192.615a84.919 84.919 0 0 0-30.939-30.939l-14.996 25.975a54.79 54.79 0 0 1 19.961 19.961c4.641 8.021 7.297 17.333 7.297 27.266h29.988c-.001-15.396-4.118-29.83-11.311-42.263z" opacity="1" data-original="#42a5f5"></path><path fill="#fc685b" d="M446.727 234.878c0-15.396-4.117-29.831-11.31-42.263l-25.974 14.996c4.641 8.021 7.297 17.333 7.297 27.266 0 9.934-2.658 19.245-7.299 27.266l25.974 14.996c7.193-12.431 11.312-26.864 11.312-42.261z" opacity="1" data-original="#fc685b"></path><path fill="#f35244" d="M435.414 277.14c7.193-12.432 11.313-26.866 11.313-42.262h-29.988c0 9.934-2.658 19.245-7.299 27.266z" opacity="1" data-original="#f35244"></path><path fill="#8d9ca8" d="M389.578 209.883a7.966 7.966 0 0 1 7.937 13.813l-31.331 18.089a7.966 7.966 0 0 1-7.937-13.813z" opacity="1" data-original="#8d9ca8"></path><path fill="#d0d9e0" d="M362.216 250.002c8.33 0 15.124-6.794 15.124-15.124s-6.794-15.124-15.124-15.124-15.124 6.794-15.124 15.124c-.001 8.33 6.794 15.124 15.124 15.124z" opacity="1" data-original="#64b5f6" class=""></path><circle cx="149.785" cy="213.754" r="63.77" fill="#72d561" transform="rotate(-45 149.757 213.798)" opacity="1" data-original="#72d561"></circle><path fill="#ffda2d" d="M149.785 149.983v63.77l58.569 25.266c3.347-7.748 5.201-16.291 5.201-25.267 0-35.218-28.551-63.769-63.77-63.769z" opacity="1" data-original="#ffda2d"></path><path fill="#fc685b" d="m208.354 239.02-58.569-25.267-38.294 50.997c10.664 8.02 23.924 12.773 38.294 12.773 26.243 0 48.784-15.852 58.569-38.503z" opacity="1" data-original="#fc685b"></path><ellipse cx="149.785" cy="213.754" fill="#eff4f7" rx="26.765" ry="26.764" transform="rotate(-86.85 149.648 213.631)" opacity="1" data-original="#eff4f7" class=""></ellipse><path fill="#fc685b" d="M296.683 420.292h14.228c2.203 0 4 1.797 4 4v19.969c0 2.203-1.797 4-4 4h-14.228c-2.203 0-4-1.797-4-4v-19.969c0-2.203 1.797-4 4-4z" opacity="1" data-original="#fc685b"></path><path fill="#ffda2d" d="M338.833 399.945h14.228c2.203 0 4 1.797 4 4v40.317c0 2.203-1.797 4-4 4h-14.228c-2.203 0-4-1.797-4-4v-40.317c0-2.203 1.797-4 4-4z" opacity="1" data-original="#ffda2d"></path><path fill="#72d561" d="M380.982 379.596h14.228c2.203 0 4 1.797 4 4v60.666c0 2.203-1.797 4-4 4h-14.228c-2.203 0-4-1.797-4-4v-60.666a4.009 4.009 0 0 1 4-4z" opacity="1" data-original="#72d561"></path><path fill="#d0d9e0" d="M423.132 359.249h14.228c2.203 0 4 1.797 4 4v81.013c0 2.203-1.797 4-4 4h-14.228c-2.203 0-4-1.797-4-4v-81.013c0-2.203 1.797-4 4-4z" opacity="1" data-original="#64b5f6" class=""></path><path fill="#8d9ca8" d="m395.438 340.092-87.083 50.278a7.981 7.981 0 0 1-8-13.812l87.093-50.283a7.991 7.991 0 0 1 4.405-15.302l19.366 3.834a7.991 7.991 0 0 1 5.911 10.758l-6.242 18.338a7.985 7.985 0 0 1-15.45-3.811z" opacity="1" data-original="#8d9ca8"></path><path fill="#e2e3e3" d="M82.823 328.103a4.58 4.58 0 0 0-4.571 4.57V445.55a4.58 4.58 0 0 0 4.571 4.57h133.924a4.58 4.58 0 0 0 4.571-4.57V332.673a4.578 4.578 0 0 0-4.57-4.57z" opacity="1" data-original="#e2e3e3" class=""></path><path fill="#fc685b" d="M161.612 413.157a8 8 0 0 1 0-16h6.823a8 8 0 0 1 0 16zm30.476 23.179a8 8 0 0 1 0-16h6.823a8 8 0 0 1 0 16zm-30.476 0a8 8 0 0 1 0-16h6.823a8 8 0 0 1 0 16zm-30.477 0a8 8 0 0 1 0-16h6.823a8 8 0 0 1 0 16zm60.953-23.179a8 8 0 0 1 0-16h6.823a8 8 0 0 1 0 16z" opacity="1" data-original="#fc685b"></path><path fill="#d0d9e0" d="M100.658 436.336a8 8 0 0 1 0-16h6.824a8 8 0 0 1 0 16zm0-46.359a8 8 0 0 1 0-16h6.824a8 8 0 0 1 0 16zm0 23.18a8 8 0 0 1 0-16h6.824a8 8 0 0 1 0 16zm30.477 0a8 8 0 0 1 0-16h6.823a8 8 0 0 1 0 16zm60.953-23.18a8 8 0 0 1 0-16h6.823a8 8 0 0 1 0 16zm-30.476 0a8 8 0 0 1 0-16h6.823a8 8 0 0 1 0 16zm-30.477 0a8 8 0 0 1 0-16h6.823a8 8 0 0 1 0 16z" opacity="1" data-original="#64b5f6" class=""></path><path fill="#004960" d="M221.318 361.249v-28.576a4.578 4.578 0 0 0-4.57-4.57H82.823a4.58 4.58 0 0 0-4.571 4.57v28.576z" opacity="1" data-original="#004960" class=""></path><path fill="#e2e3e3" d="M206.309 335.88a8 8 0 0 1-16 0v-15.556a8 8 0 0 1 16 0zm-97.047.001a8 8 0 0 1-16 0v-15.556a8 8 0 0 1 16 0zm24.261 0a8 8 0 0 1-16 0v-15.556a8 8 0 0 1 16 0zm24.262 0a8 8 0 0 1-16 0v-15.556a8 8 0 0 1 16 0zm24.262-.001a8 8 0 0 1-16 0v-15.556a8 8 0 0 1 16 0z" opacity="1" data-original="#e2e3e3" class=""></path></g></g></svg>